<svg width="48" height="48" viewBox="0 0 48 48" fill="none" xmlns="http://www.w3.org/2000/svg">
<path d="M24.0001 40.8C18.1667 40.8 13.0101 37.8133 10.0001 33.3333C10.0701 28.6666 19.3334 26.1 24.0001 26.1C28.6667 26.1 37.9301 28.6666 38.0001 33.3333C36.4575 35.6302 34.3738 37.5127 31.9324 38.8147C29.491 40.1168 26.767 40.7985 24.0001 40.8ZM24.0001 7.66663C25.8566 7.66663 27.6371 8.40412 28.9498 9.71688C30.2626 11.0296 31.0001 12.8101 31.0001 14.6666C31.0001 16.5231 30.2626 18.3036 28.9498 19.6164C27.6371 20.9291 25.8566 21.6666 24.0001 21.6666C22.1436 21.6666 20.3631 20.9291 19.0503 19.6164C17.7376 18.3036 17.0001 16.5231 17.0001 14.6666C17.0001 12.8101 17.7376 11.0296 19.0503 9.71688C20.3631 8.40412 22.1436 7.66663 24.0001 7.66663ZM24.0001 0.666626C20.9359 0.666626 17.9017 1.27016 15.0708 2.44277C12.2399 3.61538 9.66762 5.3341 7.50092 7.5008C3.12507 11.8767 0.666748 17.8116 0.666748 24C0.666748 30.1883 3.12507 36.1233 7.50092 40.4991C9.66762 42.6658 12.2399 44.3845 15.0708 45.5572C17.9017 46.7298 20.9359 47.3333 24.0001 47.3333C30.1885 47.3333 36.1234 44.875 40.4992 40.4991C44.8751 36.1233 47.3334 30.1883 47.3334 24C47.3334 11.0966 36.8334 0.666626 24.0001 0.666626Z" fill="#272E35" fill-opacity="0.3"/>
</svg>
