<?xml version="1.0" encoding="UTF-8"?> <!--?xml version="1.0" encoding="UTF-8"?--> <!--?xml version="1.0" encoding="UTF-8"?--> <!--?xml version="1.0" encoding="UTF-8"?--> <!--?xml version="1.0" encoding="UTF-8"?--> <!--?xml version="1.0" encoding="UTF-8"?--> <svg xmlns="http://www.w3.org/2000/svg" viewBox="6144 4931.00048828125 100.6240234375 100.6240234375"> <path fill="#2d2c2a" fill-opacity="1" stroke="" stroke-opacity="1" stroke-width="1" fill-rule="evenodd" id="tSvg13fdc831a1f" d="M 6207.161220126793 4956.470298838798 C 6181.218220126792 4956.470298838798 6181.218220126792 4956.470298838798 6181.218220126792 4956.470298838798 C 6174.726220126792 4956.470298838798 6169.444220126793 4961.752298838798 6169.444220126793 4968.2442988387975 C 6169.444220126793 4994.425298838798 6169.444220126793 4994.425298838798 6169.444220126793 4994.425298838798 C 6169.444220126793 5000.917298838798 6174.726220126792 5006.199298838797 6181.218220126792 5006.199298838797 C 6207.161220126793 5006.199298838797 6207.161220126793 5006.199298838797 6207.161220126793 5006.199298838797 C 6213.653220126793 5006.199298838797 6218.935220126793 5000.917298838798 6218.935220126793 4994.425298838798 C 6218.935220126793 4968.2442988387975 6218.935220126793 4968.2442988387975 6218.935220126793 4968.2442988387975 C 6218.935220126793 4961.752298838798 6213.653220126793 4956.470298838798 6207.161220126793 4956.470298838798Z M 6194.239220126792 4997.011298838798 C 6185.439220126793 4997.011298838798 6178.280220126792 4989.928298838798 6178.280220126792 4981.2222988387975 C 6178.280220126792 4972.516298838797 6185.440220126792 4965.433298838798 6194.239220126792 4965.433298838798 C 6203.038220126793 4965.433298838798 6210.198220126793 4972.516298838797 6210.198220126793 4981.2222988387975 C 6210.198220126793 4989.928298838798 6203.039220126792 4997.011298838798 6194.239220126792 4997.011298838798Z M 6210.4822201267925 4968.542298838798 C 6208.408220126793 4968.542298838798 6206.727220126792 4966.861298838798 6206.727220126792 4964.787298838798 C 6206.727220126792 4962.7132988387975 6208.408220126793 4961.032298838798 6210.4822201267925 4961.032298838798 C 6212.556220126792 4961.032298838798 6214.237220126793 4962.7132988387975 6214.237220126793 4964.787298838798 C 6214.237220126793 4966.861298838798 6212.556220126792 4968.542298838798 6210.4822201267925 4968.542298838798Z"></path> <path fill="#2d2c2a" fill-opacity="1" stroke="" stroke-opacity="1" stroke-width="1" fill-rule="evenodd" id="tSvgacebb6ee3e" d="M 6194.312220126792 4932.000298838798 C 6167.078220126793 4932.000298838798 6145.000220126793 4954.078298838798 6145.000220126793 4981.312298838798 C 6145.000220126793 5008.546298838798 6167.078220126793 5030.624298838798 6194.312220126792 5030.624298838798 C 6221.546220126793 5030.624298838798 6243.624220126792 5008.546298838798 6243.624220126792 4981.312298838798 C 6243.624220126792 4954.078298838798 6221.546220126793 4932.000298838798 6194.312220126792 4932.000298838798Z M 6224.759220126793 4994.425298838798 C 6224.759220126793 5004.129298838798 6216.864220126792 5012.023298838798 6207.161220126793 5012.023298838798 C 6181.218220126792 5012.023298838798 6181.218220126792 5012.023298838798 6181.218220126792 5012.023298838798 C 6171.514220126793 5012.023298838798 6163.620220126792 5004.1282988387975 6163.620220126792 4994.425298838798 C 6163.620220126792 4968.2442988387975 6163.620220126792 4968.2442988387975 6163.620220126792 4968.2442988387975 C 6163.620220126792 4958.540298838798 6171.515220126793 4950.6462988387975 6181.218220126792 4950.6462988387975 C 6207.161220126793 4950.6462988387975 6207.161220126793 4950.6462988387975 6207.161220126793 4950.6462988387975 C 6216.865220126792 4950.6462988387975 6224.759220126793 4958.541298838798 6224.759220126793 4968.2442988387975 C 6224.759220126793 4994.425298838798 6224.759220126793 4994.425298838798 6224.759220126793 4994.425298838798"></path> <path fill="#2d2c2a" fill-opacity="1" stroke="" stroke-opacity="1" stroke-width="1" fill-rule="evenodd" id="tSvg1450710c879" d="M 6194.239220126792 4971.246298838798 C 6188.644220126793 4971.246298838798 6184.093220126792 4975.721298838798 6184.093220126792 4981.2222988387975 C 6184.093220126792 4986.723298838798 6188.644220126793 4991.198298838798 6194.239220126792 4991.198298838798 C 6199.834220126792 4991.198298838798 6204.385220126793 4986.723298838798 6204.385220126793 4981.2222988387975 C 6204.385220126793 4975.721298838797 6199.834220126792 4971.246298838798 6194.239220126792 4971.246298838798Z"></path> <defs> </defs> </svg> 