<?xml version="1.0" encoding="UTF-8"?> <!--?xml version="1.0" encoding="UTF-8"?--> <!--?xml version="1.0" encoding="UTF-8"?--> <!--?xml version="1.0" encoding="UTF-8"?--> <!--?xml version="1.0" encoding="UTF-8"?--> <!--?xml version="1.0" encoding="UTF-8"?--> <!--?xml version="1.0" encoding="UTF-8"?--> <!--?xml version="1.0" encoding="UTF-8"?--> <!--?xml version="1.0" encoding="UTF-8"?--> <!--?xml version="1.0" encoding="UTF-8"?--> <!--?xml version="1.0" encoding="UTF-8"?--> <!--?xml version="1.0" encoding="UTF-8"?--> <!--?xml version="1.0" encoding="UTF-8"?--> <!--?xml version="1.0" encoding="UTF-8"?--> <!--?xml version="1.0" encoding="UTF-8"?--> <svg xmlns="http://www.w3.org/2000/svg" viewBox="5377 5133 100.6240234375 100.6240234375"> <path fill="#fbf8f7" fill-opacity="1" stroke="" stroke-opacity="1" stroke-width="1" fill-rule="evenodd" id="tSvgbeab989b73" d="M 5440.161 5158.47 C 5414.218 5158.47 5414.218 5158.47 5414.218 5158.47 C 5407.726 5158.47 5402.444 5163.752 5402.444 5170.244 C 5402.444 5196.425 5402.444 5196.425 5402.444 5196.425 C 5402.444 5202.917 5407.726 5208.199 5414.218 5208.199 C 5440.161 5208.199 5440.161 5208.199 5440.161 5208.199 C 5446.653 5208.199 5451.935 5202.917 5451.935 5196.425 C 5451.935 5170.244 5451.935 5170.244 5451.935 5170.244 C 5451.935 5163.752 5446.653 5158.47 5440.161 5158.47Z M 5427.239 5199.011 C 5418.439 5199.011 5411.28 5191.928 5411.28 5183.222 C 5411.28 5174.516 5418.44 5167.433 5427.239 5167.433 C 5436.0380000000005 5167.433 5443.198 5174.516 5443.198 5183.222 C 5443.198 5191.928 5436.039 5199.011 5427.239 5199.011Z M 5443.482 5170.542 C 5441.408 5170.542 5439.727 5168.861 5439.727 5166.787 C 5439.727 5164.713 5441.408 5163.032 5443.482 5163.032 C 5445.556 5163.032 5447.237 5164.713 5447.237 5166.787 C 5447.237 5168.861 5445.556 5170.542 5443.482 5170.542Z"></path> <path fill="#fbf8f7" fill-opacity="1" stroke="" stroke-opacity="1" stroke-width="1" fill-rule="evenodd" id="tSvg1362fefb374" d="M 5427.312 5134 C 5400.078 5134 5378 5156.078 5378 5183.312 C 5378 5210.546 5400.078 5232.624 5427.312 5232.624 C 5454.546 5232.624 5476.624 5210.546 5476.624 5183.312 C 5476.624 5156.078 5454.546 5134 5427.312 5134Z M 5457.759 5196.425 C 5457.759 5206.129 5449.864 5214.023 5440.161 5214.023 C 5414.218 5214.023 5414.218 5214.023 5414.218 5214.023 C 5404.514 5214.023 5396.62 5206.128 5396.62 5196.425 C 5396.62 5170.244 5396.62 5170.244 5396.62 5170.244 C 5396.62 5160.54 5404.515 5152.646 5414.218 5152.646 C 5440.161 5152.646 5440.161 5152.646 5440.161 5152.646 C 5449.865 5152.646 5457.759 5160.541 5457.759 5170.244 C 5457.759 5196.425 5457.759 5196.425 5457.759 5196.425"></path> <path fill="#fbf8f7" fill-opacity="1" stroke="" stroke-opacity="1" stroke-width="1" fill-rule="evenodd" id="tSvg35ba23502d" d="M 5427.239 5173.246 C 5421.644 5173.246 5417.093 5177.721 5417.093 5183.222 C 5417.093 5188.723 5421.644 5193.198 5427.239 5193.198 C 5432.834 5193.198 5437.385 5188.723 5437.385 5183.222 C 5437.385 5177.721 5432.834 5173.246 5427.239 5173.246Z"></path> <defs> </defs> </svg> 