<?xml version="1.0" encoding="UTF-8"?> <!--?xml version="1.0" encoding="UTF-8"?--> <!--?xml version="1.0" encoding="UTF-8"?--> <!--?xml version="1.0" encoding="UTF-8"?--> <!--?xml version="1.0" encoding="UTF-8"?--> <!--?xml version="1.0" encoding="UTF-8"?--> <svg xmlns="http://www.w3.org/2000/svg" viewBox="6159 4939 100.6240234375 100.6240234375"> <path fill="#2d2c2a" fill-opacity="1" stroke="" stroke-opacity="1" stroke-width="1" fill-rule="evenodd" id="tSvg1042dc4071c" d="M 6209.31185298101 4939.999857436131 C 6182.07785298101 4939.999857436131 6159.99985298101 4962.077857436131 6159.99985298101 4989.311857436131 C 6159.99985298101 5016.545857436131 6182.07785298101 5038.6238574361305 6209.31185298101 5038.6238574361305 C 6236.54585298101 5038.6238574361305 6258.62385298101 5016.545857436131 6258.62385298101 4989.311857436131 C 6258.62385298101 4962.077857436131 6236.54585298101 4939.999857436131 6209.31185298101 4939.999857436131Z M 6237.05085298101 4962.918857436131 C 6226.00985298101 5014.77085743613 6226.00985298101 5014.77085743613 6226.00985298101 5014.77085743613 C 6225.80285298101 5015.7888574361305 6224.64285298101 5016.28785743613 6223.76185298101 5015.735857436131 C 6206.78285298101 5004.474857436131 6206.78285298101 5004.474857436131 6206.78285298101 5004.474857436131 C 6206.78285298101 5004.474857436131 6197.85185298101 5012.785857436131 6197.85185298101 5012.785857436131 C 6197.05685298101 5013.465857436131 6195.82585298101 5013.134857436131 6195.47985298101 5012.146857436131 C 6189.66485298101 4993.8068574361305 6189.66485298101 4993.8068574361305 6189.66485298101 4993.8068574361305 C 6189.66485298101 4993.8068574361305 6174.04985298101 4987.402857436131 6174.04985298101 4987.402857436131 C 6172.85185298101 4986.856857436131 6172.86885298101 4984.94885743613 6174.09685298101 4984.47185743613 C 6235.05285298101 4961.23485743613 6235.05285298101 4961.23485743613 6235.05285298101 4961.23485743613 C 6236.15085298101 4960.808857436131 6237.28485298101 4961.764857436131 6237.05085298101 4962.918857436131Z"></path> <path fill="#2d2c2a" fill-opacity="1" stroke="" stroke-opacity="1" stroke-width="1" fill-rule="evenodd" id="tSvg35ac81062" d="M 6197.35585298101 5006.70785743613 C 6198.34785298101 4997.27985743613 6198.34785298101 4997.27985743613 6198.34785298101 4997.27985743613 C 6198.34785298101 4997.27985743613 6225.88585298101 4970.361857436131 6225.88585298101 4970.361857436131 C 6225.88585298101 4970.361857436131 6192.64185298101 4992.193857436131 6192.64185298101 4992.193857436131C 6192.64185298101 4992.193857436131 6197.35585298101 5006.70785743613 6197.35585298101 5006.70785743613 Z"></path> <defs> </defs> </svg> 