<?xml version="1.0" encoding="UTF-8"?> <!--?xml version="1.0" encoding="UTF-8"?--> <!--?xml version="1.0" encoding="UTF-8"?--> <!--?xml version="1.0" encoding="UTF-8"?--> <!--?xml version="1.0" encoding="UTF-8"?--> <!--?xml version="1.0" encoding="UTF-8"?--> <!--?xml version="1.0" encoding="UTF-8"?--> <!--?xml version="1.0" encoding="UTF-8"?--> <!--?xml version="1.0" encoding="UTF-8"?--> <!--?xml version="1.0" encoding="UTF-8"?--> <!--?xml version="1.0" encoding="UTF-8"?--> <!--?xml version="1.0" encoding="UTF-8"?--> <!--?xml version="1.0" encoding="UTF-8"?--> <!--?xml version="1.0" encoding="UTF-8"?--> <!--?xml version="1.0" encoding="UTF-8"?--> <svg xmlns="http://www.w3.org/2000/svg" viewBox="5656.99951171875 5123 100.6240234375 100.6240234375"> <path fill="#fbf8f7" fill-opacity="1" stroke="" stroke-opacity="1" stroke-width="1" fill-rule="evenodd" id="tSvg2c992f1d64" d="M 5707.311674479167 5124.000108506944 C 5680.077674479167 5124.000108506944 5657.999674479167 5146.078108506945 5657.999674479167 5173.312108506944 C 5657.999674479167 5200.546108506945 5680.077674479167 5222.624108506944 5707.311674479167 5222.624108506944 C 5734.545674479167 5222.624108506944 5756.623674479167 5200.546108506945 5756.623674479167 5173.312108506944 C 5756.623674479167 5146.078108506945 5734.545674479167 5124.000108506944 5707.311674479167 5124.000108506944Z M 5735.050674479167 5146.919108506944 C 5724.009674479167 5198.771108506944 5724.009674479167 5198.771108506944 5724.009674479167 5198.771108506944 C 5723.802674479167 5199.789108506944 5722.642674479167 5200.288108506944 5721.761674479167 5199.736108506944 C 5704.782674479167 5188.475108506945 5704.782674479167 5188.475108506945 5704.782674479167 5188.475108506945 C 5704.782674479167 5188.475108506945 5695.851674479167 5196.786108506944 5695.851674479167 5196.786108506944 C 5695.056674479167 5197.466108506945 5693.825674479167 5197.135108506945 5693.4796744791665 5196.147108506944 C 5687.664674479167 5177.807108506944 5687.664674479167 5177.807108506944 5687.664674479167 5177.807108506944 C 5687.664674479167 5177.807108506944 5672.049674479167 5171.403108506945 5672.049674479167 5171.403108506945 C 5670.851674479167 5170.857108506944 5670.868674479167 5168.949108506944 5672.096674479167 5168.472108506944 C 5733.052674479167 5145.235108506944 5733.052674479167 5145.235108506944 5733.052674479167 5145.235108506944 C 5734.150674479167 5144.8091085069445 5735.284674479167 5145.765108506945 5735.050674479167 5146.919108506944Z"></path> <path fill="#fbf8f7" fill-opacity="1" stroke="" stroke-opacity="1" stroke-width="1" fill-rule="evenodd" id="tSvg17bc9767940" d="M 5695.355674479167 5190.708108506944 C 5696.347674479167 5181.280108506944 5696.347674479167 5181.280108506944 5696.347674479167 5181.280108506944 C 5696.347674479167 5181.280108506944 5723.885674479167 5154.362108506944 5723.885674479167 5154.362108506944 C 5723.885674479167 5154.362108506944 5690.641674479167 5176.194108506945 5690.641674479167 5176.194108506945C 5690.641674479167 5176.194108506945 5695.355674479167 5190.708108506944 5695.355674479167 5190.708108506944 Z"></path> <defs> </defs> </svg> 