<?xml version="1.0" encoding="UTF-8"?> <!--?xml version="1.0" encoding="UTF-8"?--> <!--?xml version="1.0" encoding="UTF-8"?--> <!--?xml version="1.0" encoding="UTF-8"?--> <!--?xml version="1.0" encoding="UTF-8"?--> <!--?xml version="1.0" encoding="UTF-8"?--> <svg xmlns="http://www.w3.org/2000/svg" viewBox="5787 4961 100.6240234375 100.6240234375"> <path fill="#2d2c2a" fill-opacity="1" stroke="" stroke-opacity="1" stroke-width="1" fill-rule="evenodd" id="tSvg16e264500db" d="M 5837.312183105469 4962 C 5810.078183105469 4962 5788.000183105469 4984.078 5788.000183105469 5011.312 C 5788.000183105469 5038.546 5810.078183105469 5060.624 5837.312183105469 5060.624 C 5864.546183105469 5060.624 5886.624183105469 5038.546 5886.624183105469 5011.312 C 5886.624183105469 4984.078 5864.546183105469 4962 5837.312183105469 4962Z M 5858.696183105469 5017.83 C 5859.084183105469 5018.31 5860.007183105468 5019.245 5861.467183105468 5020.637 C 5861.501183105469 5020.637 5861.501183105469 5020.637 5861.501183105469 5020.637 C 5861.501183105469 5020.637 5861.535183105469 5020.67 5861.535183105469 5020.67 C 5861.535183105469 5020.67 5861.569183105469 5020.705 5861.569183105469 5020.705 C 5861.569183105469 5020.705 5861.638183105469 5020.773 5861.638183105469 5020.773 C 5864.854183105469 5023.761 5867.032183105469 5026.282 5868.1731831054685 5028.335 C 5868.242183105469 5028.448 5868.316183105469 5028.592 5868.3961831054685 5028.763 C 5868.475183105469 5028.934 5868.555183105469 5029.236 5868.635183105469 5029.669 C 5868.714183105469 5030.104 5868.708183105468 5030.49 5868.618183105469 5030.832 C 5868.527183105469 5031.173 5868.242183105469 5031.489 5867.763183105469 5031.773 C 5867.284183105468 5032.059 5866.611183105469 5032.201 5865.744183105468 5032.201 C 5856.985183105468 5032.339 5856.985183105468 5032.339 5856.985183105468 5032.339 C 5856.438183105469 5032.453 5855.799183105469 5032.396 5855.069183105469 5032.168 C 5854.3381831054685 5031.939 5853.746183105469 5031.688 5853.290183105469 5031.415 C 5852.605183105468 5031.003 5852.605183105468 5031.003 5852.605183105468 5031.003 C 5851.920183105469 5030.524 5851.122183105469 5029.794 5850.210183105469 5028.814 C 5849.297183105468 5027.833 5848.516183105468 5026.949 5847.866183105469 5026.162 C 5847.216183105469 5025.375 5846.520183105469 5024.715 5845.778183105469 5024.177 C 5845.036183105469 5023.641 5844.392183105469 5023.464 5843.845183105469 5023.647 C 5843.777183105469 5023.671 5843.685183105469 5023.711 5843.571183105469 5023.767 C 5843.456183105469 5023.824 5843.263183105469 5023.988 5842.989183105468 5024.263 C 5842.715183105469 5024.537 5842.470183105469 5024.874 5842.253183105468 5025.272 C 5842.036183105469 5025.672 5841.842183105468 5026.265 5841.671183105469 5027.052 C 5841.500183105469 5027.838 5841.425183105469 5028.723 5841.449183105468 5029.704 C 5841.449183105468 5030.045 5841.408183105469 5030.36 5841.3291831054685 5030.645 C 5841.249183105469 5030.93 5841.163183105469 5031.141 5841.072183105469 5031.277 C 5840.935183105469 5031.448 5840.935183105469 5031.448 5840.935183105469 5031.448 C 5840.524183105469 5031.883 5839.920183105469 5032.133 5839.122183105469 5032.201 C 5835.187183105469 5032.201 5835.187183105469 5032.201 5835.187183105469 5032.201 C 5833.567183105469 5032.293 5831.902183105469 5032.105 5830.192183105469 5031.637 C 5828.482183105469 5031.168 5826.9811831054685 5030.565 5825.693183105469 5029.823 C 5824.403183105469 5029.083 5823.229183105469 5028.33 5822.169183105469 5027.566 C 5821.108183105469 5026.801 5820.304183105469 5026.146 5819.757183105468 5025.599 C 5818.902183105469 5024.777 5818.902183105469 5024.777 5818.902183105469 5024.777 C 5818.674183105469 5024.55 5818.360183105468 5024.207 5817.961183105469 5023.75 C 5817.562183105469 5023.294 5816.747183105469 5022.257 5815.515183105469 5020.637 C 5814.283183105469 5019.017 5813.074183105468 5017.296 5811.888183105469 5015.47 C 5810.702183105469 5013.645 5809.305183105469 5011.238 5807.696183105469 5008.25 C 5806.0881831054685 5005.263 5804.600183105469 5002.161 5803.2311831054685 4998.944 C 5803.094183105469 4998.58 5803.025183105468 4998.272 5803.025183105468 4998.021 C 5803.025183105468 4997.771 5803.059183105469 4997.588 5803.128183105468 4997.473 C 5803.265183105469 4997.268 5803.265183105469 4997.268 5803.265183105469 4997.268 C 5803.607183105469 4996.834 5804.257183105468 4996.617 5805.215183105469 4996.617 C 5814.590183105469 4996.549 5814.590183105469 4996.549 5814.590183105469 4996.549 C 5814.864183105468 4996.595 5815.126183105469 4996.669 5815.377183105469 4996.772 C 5815.628183105468 4996.874 5815.811183105468 4996.971 5815.925183105469 4997.062 C 5816.096183105469 4997.165 5816.096183105469 4997.165 5816.096183105469 4997.165 C 5816.461183105469 4997.417 5816.734183105469 4997.781 5816.917183105469 4998.26 C 5817.373183105468 4999.402 5817.898183105469 5000.582 5818.491183105469 5001.802 C 5819.084183105469 5003.022 5819.552183105468 5003.952 5819.894183105469 5004.59 C 5820.441183105469 5005.583 5820.441183105469 5005.583 5820.441183105469 5005.583 C 5821.102183105469 5006.951 5821.741183105469 5008.138 5822.357183105469 5009.141 C 5822.974183105469 5010.145 5823.526183105469 5010.927 5824.017183105469 5011.485 C 5824.507183105468 5012.044 5824.980183105468 5012.484 5825.437183105469 5012.802 C 5825.893183105469 5013.122 5826.281183105469 5013.282 5826.601183105468 5013.282 C 5826.920183105469 5013.282 5827.228183105469 5013.225 5827.525183105468 5013.111 C 5827.5701831054685 5013.088 5827.627183105469 5013.031 5827.696183105469 5012.94 C 5827.765183105469 5012.849 5827.901183105469 5012.598 5828.107183105469 5012.186 C 5828.312183105469 5011.776 5828.466183105469 5011.24 5828.569183105469 5010.578 C 5828.672183105468 5009.918 5828.7801831054685 5008.994 5828.894183105469 5007.808 C 5829.008183105469 5006.621 5829.008183105469 5005.196 5828.894183105469 5003.531 C 5828.848183105469 5002.618 5828.745183105469 5001.786 5828.586183105469 5001.033 C 5828.426183105469 5000.281 5828.266183105468 4999.756 5828.107183105469 4999.459 C 5827.901183105469 4999.049 5827.901183105469 4999.049 5827.901183105469 4999.049 C 5827.331183105469 4998.274 5826.362183105469 4997.783 5824.993183105469 4997.577 C 5824.696183105469 4997.533 5824.753183105468 4997.259 5825.1641831054685 4996.757 C 5825.552183105468 4996.323 5825.985183105468 4995.982 5826.464183105469 4995.73 C 5827.6731831054685 4995.138 5830.399183105469 4994.864 5834.642183105469 4994.908 C 5836.5121831054685 4994.932 5838.052183105468 4995.079 5839.261183105469 4995.353 C 5839.717183105468 4995.468 5840.099183105469 4995.621 5840.407183105469 4995.815 C 5840.715183105469 4996.008 5840.949183105468 4996.283 5841.109183105469 4996.635 C 5841.268183105469 4996.989 5841.388183105469 4997.354 5841.468183105469 4997.73 C 5841.5481831054685 4998.107 5841.5881831054685 4998.627 5841.5881831054685 4999.287 C 5841.5881831054685 4999.949 5841.577183105469 5000.577 5841.554183105469 5001.169 C 5841.531183105469 5001.762 5841.503183105468 5002.567 5841.469183105469 5003.581 C 5841.435183105469 5004.596 5841.417183105469 5005.538 5841.417183105469 5006.404 C 5841.417183105469 5006.656 5841.406183105469 5007.134 5841.383183105469 5007.841 C 5841.360183105468 5008.549 5841.353183105469 5009.096 5841.366183105469 5009.483 C 5841.377183105469 5009.871 5841.417183105469 5010.334 5841.485183105468 5010.869 C 5841.554183105469 5011.405 5841.685183105469 5011.851 5841.879183105469 5012.203 C 5842.072183105469 5012.557 5842.3291831054685 5012.836 5842.649183105469 5013.041 C 5842.831183105469 5013.088 5843.025183105468 5013.133 5843.2311831054685 5013.179 C 5843.436183105468 5013.224 5843.732183105469 5013.1 5844.120183105469 5012.802 C 5844.507183105468 5012.506 5844.941183105469 5012.112 5845.420183105469 5011.622 C 5845.899183105469 5011.133 5846.492183105469 5010.369 5847.199183105468 5009.33 C 5847.9051831054685 5008.294 5848.681183105468 5007.067 5849.525183105468 5005.652 C 5850.894183105469 5003.28 5852.114183105468 5000.713 5853.186183105468 4997.953 C 5853.277183105469 4997.724 5853.391183105468 4997.525 5853.528183105469 4997.354 C 5853.665183105469 4997.182 5853.790183105469 4997.062 5853.904183105469 4996.994 C 5854.041183105469 4996.891 5854.041183105469 4996.891 5854.041183105469 4996.891 C 5854.086183105469 4996.868 5854.143183105469 4996.84 5854.212183105469 4996.806 C 5854.281183105469 4996.773 5854.429183105469 4996.738 5854.657183105469 4996.703 C 5854.885183105469 4996.67 5855.113183105469 4996.664 5855.342183105468 4996.687 C 5865.196183105469 4996.617 5865.196183105469 4996.617 5865.196183105469 4996.617 C 5866.085183105469 4996.504 5866.815183105468 4996.532 5867.385183105469 4996.702 C 5867.955183105469 4996.873 5868.309183105469 4997.062 5868.446183105469 4997.267 C 5868.652183105469 4997.609 5868.652183105469 4997.609 5868.652183105469 4997.609 C 5869.176183105469 4999.07 5867.466183105469 5002.421 5863.520183105469 5007.668 C 5862.9721831054685 5008.399 5862.230183105468 5009.369 5861.296183105469 5010.577 C 5859.517183105469 5012.859 5858.491183105469 5014.353 5858.219183105469 5015.062 C 5857.8291831054685 5015.995 5857.989183105468 5016.919 5858.696183105469 5017.83Z"></path> <defs></defs> </svg> 