<?xml version="1.0" encoding="UTF-8"?> <!--?xml version="1.0" encoding="UTF-8"?--> <!--?xml version="1.0" encoding="UTF-8"?--> <!--?xml version="1.0" encoding="UTF-8"?--> <!--?xml version="1.0" encoding="UTF-8"?--> <!--?xml version="1.0" encoding="UTF-8"?--> <!--?xml version="1.0" encoding="UTF-8"?--> <!--?xml version="1.0" encoding="UTF-8"?--> <!--?xml version="1.0" encoding="UTF-8"?--> <!--?xml version="1.0" encoding="UTF-8"?--> <!--?xml version="1.0" encoding="UTF-8"?--> <!--?xml version="1.0" encoding="UTF-8"?--> <!--?xml version="1.0" encoding="UTF-8"?--> <!--?xml version="1.0" encoding="UTF-8"?--> <!--?xml version="1.0" encoding="UTF-8"?--> <svg xmlns="http://www.w3.org/2000/svg" viewBox="5577.99365234375 5095.994140625 59.78837966918945 59.78837966918945"> <path fill="#fbf8f7" fill-opacity="1" stroke="" stroke-opacity="1" stroke-width="0.6" fill-rule="evenodd" id="tSvg37e0e396e7" d="M 5607.887879460603 5096.594069710878 C 5591.709265599216 5096.594069710878 5578.593622034859 5109.709713275234 5578.593622034859 5125.88832713662 C 5578.593622034859 5142.066940998006 5591.709265599216 5155.1825845623625 5607.887879460603 5155.1825845623625 C 5624.066493321989 5155.1825845623625 5637.182136886346 5142.066940998006 5637.182136886346 5125.88832713662 C 5637.182136886346 5109.709713275234 5624.066493321989 5096.594069710878 5607.887879460603 5096.594069710878Z M 5620.591245797236 5129.760406344541 C 5620.821740846742 5130.045554859392 5621.370057678425 5130.601000403947 5622.237384411098 5131.427931097016 C 5622.2575824309 5131.427931097016 5622.2575824309 5131.427931097016 5622.2575824309 5131.427931097016 C 5622.2575824309 5131.427931097016 5622.277780450701 5131.447535057412 5622.277780450701 5131.447535057412 C 5622.277780450701 5131.447535057412 5622.297978470504 5131.46832713662 5622.297978470504 5131.46832713662 C 5622.297978470504 5131.46832713662 5622.338968569513 5131.508723176224 5622.338968569513 5131.508723176224 C 5624.249463619019 5133.283772681174 5625.543325005157 5134.781396443551 5626.221146787336 5136.001000403947 C 5626.262136886345 5136.0681291168175 5626.306097282385 5136.153673671273 5626.353622034861 5136.255257829689 C 5626.40055272793 5136.356841988105 5626.448077480404 5136.5362479287 5626.49560223288 5136.793475651471 C 5626.542532925949 5137.051891493055 5626.538968569514 5137.281198423749 5626.485503222979 5137.48436674058 C 5626.431443817038 5137.686940998006 5626.262136886345 5137.874663770283 5625.977582430899 5138.04337664157 C 5625.693027975454 5138.213277631669 5625.293225995256 5138.297634067313 5624.778176490306 5138.297634067313 C 5619.574810153672 5138.379614265333 5619.574810153672 5138.379614265333 5619.574810153672 5138.379614265333 C 5619.249859658622 5138.44733703761 5618.870255698226 5138.413475651471 5618.43659233189 5138.278030106917 C 5618.002334906148 5138.141990502956 5617.65065173783 5137.992881592066 5617.3797606487215 5137.830703374244 C 5616.972829955652 5137.585950898996 5616.972829955652 5137.585950898996 5616.972829955652 5137.585950898996 C 5616.565899262583 5137.30139644355 5616.091839856642 5136.867733077214 5615.550057678424 5136.2855548593925 C 5615.0076814408 5135.702782582164 5614.543721044761 5135.177634067313 5614.157582430899 5134.710109314838 C 5613.771443817038 5134.242584562363 5613.357978470503 5133.850505354441 5612.917186391295 5133.530901394046 C 5612.476394312088 5133.212485552462 5612.0938200546625 5133.107337037611 5611.7688695596125 5133.216049908898 C 5611.728473520008 5133.230307334639 5611.673820054662 5133.254069710877 5611.606097282384 5133.28733703761 C 5611.537780450702 5133.321198423749 5611.423126985354 5133.418624166323 5611.260354708127 5133.581990502957 C 5611.0975824309 5133.744762780184 5610.952037876445 5133.944960799987 5610.823126985355 5134.1813964435505 C 5610.694216094266 5134.419020205927 5610.578968569514 5134.77129743365 5610.477384411098 5135.238822186125 C 5610.375800252682 5135.705752879195 5610.331245797236 5136.231495453452 5610.345503222979 5136.81426773068 C 5610.345503222979 5137.016841988105 5610.321146787335 5137.203970700976 5610.274216094266 5137.373277631669 C 5610.226691341791 5137.542584562362 5610.17560223288 5137.667931097016 5610.121542826939 5137.748723176224 C 5610.040156688326 5137.85030733464 5610.040156688326 5137.85030733464 5610.040156688326 5137.85030733464 C 5609.795998272484 5138.108723176224 5609.437186391296 5138.257238027709 5608.963126985355 5138.297634067313 C 5606.625503222978 5138.297634067313 5606.625503222978 5138.297634067313 5606.625503222978 5138.297634067313 C 5605.663126985355 5138.35228753266 5604.674018074464 5138.240604364343 5603.658176490306 5137.962584562362 C 5602.642334906147 5137.683970700977 5601.750651737831 5137.325752879195 5600.985503222979 5136.884960799986 C 5600.219166589315 5136.44535683959 5599.5217408467415 5135.998030106917 5598.892037876444 5135.5441687207785 C 5598.261740846741 5135.089713275233 5597.784117084365 5134.700604364343 5597.459166589316 5134.375653869293 C 5596.951245797236 5133.88733703761 5596.951245797236 5133.88733703761 5596.951245797236 5133.88733703761 C 5596.815800252682 5133.752485552462 5596.6292655992165 5133.548723176224 5596.392235896246 5133.277238027709 C 5596.155206193275 5133.0063469386005 5595.671047777434 5132.39030733464 5594.939166589315 5131.427931097016 C 5594.207285401197 5130.465554859393 5593.489067579415 5129.443178621768 5592.784513123968 5128.358426146521 C 5592.079958668523 5127.27426773068 5591.250057678424 5125.84436674058 5590.294216094266 5124.0693172356305 C 5589.338968569514 5122.294861790086 5588.455008173474 5120.452089512857 5587.641740846741 5118.541000403947 C 5587.560354708127 5118.324762780185 5587.5193646091175 5118.141792483155 5587.5193646091175 5117.992683572264 C 5587.5193646091175 5117.844168720779 5587.539562628919 5117.735455849492 5587.58055272793 5117.667139017808 C 5587.661938866543 5117.545356839591 5587.661938866543 5117.545356839591 5587.661938866543 5117.545356839591 C 5587.865107183375 5117.287535057412 5588.251245797236 5117.158624166323 5588.8203547081275 5117.158624166323 C 5594.38966163882 5117.118228126719 5594.38966163882 5117.118228126719 5594.38966163882 5117.118228126719 C 5594.552433916048 5117.145554859392 5594.708077480404 5117.189515255432 5594.857186391296 5117.250703374244 C 5595.006295302187 5117.31129743365 5595.115008173474 5117.368921196026 5595.182730945751 5117.422980601967 C 5595.284315104167 5117.484168720779 5595.284315104167 5117.484168720779 5595.284315104167 5117.484168720779 C 5595.5011467873355 5117.633871691075 5595.663325005157 5117.850109314838 5595.772037876444 5118.134663770284 C 5596.042928965553 5118.813079611868 5596.354810153672 5119.514069710877 5596.707087381395 5120.238822186125 C 5597.059364609117 5120.963574661373 5597.337384411097 5121.516049908897 5597.540552727929 5121.895059809887 C 5597.865503222979 5122.484960799987 5597.865503222979 5122.484960799987 5597.865503222979 5122.484960799987 C 5598.258176490305 5123.297634067313 5598.637780450701 5124.002782582164 5599.003721044761 5124.598624166323 C 5599.370255698226 5125.195059809887 5599.698176490306 5125.6596142653325 5599.989859658623 5125.991099413848 C 5600.280948767533 5126.323178621768 5600.561938866544 5126.584564760382 5600.833424015058 5126.773475651472 C 5601.104315104167 5126.963574661372 5601.334810153672 5127.058624166323 5601.524909163573 5127.058624166323 C 5601.714414114068 5127.058624166323 5601.897384411098 5127.024762780185 5602.073820054662 5126.957040007907 C 5602.100552727929 5126.9433766415705 5602.134414114068 5126.909515255432 5602.175404213078 5126.855455849492 C 5602.216394312088 5126.80139644355 5602.297186391296 5126.65228753266 5602.419562628919 5126.407535057412 C 5602.541344807137 5126.163970700976 5602.632829955653 5125.845554859392 5602.694018074464 5125.452287532659 C 5602.755206193276 5125.060208324739 5602.819364609118 5124.51129743365 5602.887087381395 5123.806742978204 C 5602.954810153672 5123.101594463353 5602.954810153672 5122.255059809888 5602.887087381395 5121.265950898996 C 5602.859760648721 5120.723574661372 5602.7985725299095 5120.229317235629 5602.704117084365 5119.781990502956 C 5602.609067579415 5119.33525782969 5602.514018074464 5119.02337664157 5602.419562628919 5118.846940998006 C 5602.297186391296 5118.60337664157 5602.297186391296 5118.60337664157 5602.297186391296 5118.60337664157 C 5601.958572529909 5118.142980601967 5601.382928965553 5117.85129743365 5600.56966163882 5117.728921196026 C 5600.393225995256 5117.702782582164 5600.427087381395 5117.540010304937 5600.671245797236 5117.241792483154 C 5600.901740846742 5116.983970700976 5601.1589685695135 5116.781396443551 5601.443523024959 5116.631693473254 C 5602.161740846742 5116.280010304937 5603.781146787335 5116.117238027709 5606.301740846741 5116.14337664157 C 5607.41263193585 5116.157634067313 5608.327483420999 5116.244960799986 5609.0457012427805 5116.407733077213 C 5609.31659233189 5116.476049908897 5609.543523024959 5116.5669409980055 5609.7264933219885 5116.682188522758 C 5609.909463619018 5116.796841988105 5610.048473520009 5116.960208324739 5610.143523024959 5117.16931723563 C 5610.237978470504 5117.379614265333 5610.309265599216 5117.596445948501 5610.356790351692 5117.8198122851345 C 5610.404315104167 5118.043772681175 5610.428077480405 5118.352683572263 5610.428077480405 5118.744762780184 C 5610.428077480405 5119.138030106917 5610.421542826939 5119.511099413848 5610.407879460602 5119.862782582165 C 5610.394216094266 5120.215059809888 5610.3775824309 5120.69327763167 5610.357384411098 5121.295653869293 C 5610.337186391295 5121.898624166323 5610.326493321989 5122.458228126719 5610.326493321989 5122.972683572263 C 5610.326493321989 5123.122386542561 5610.319958668523 5123.4063469386 5610.306295302187 5123.8263469386 C 5610.29263193585 5124.246940998007 5610.288473520009 5124.571891493056 5610.2961962922855 5124.801792483155 C 5610.302730945751 5125.032287532659 5610.326493321989 5125.3073370376105 5610.366889361593 5125.625158819788 C 5610.407879460602 5125.943574661373 5610.485701242781 5126.208525156422 5610.600948767533 5126.417634067313 C 5610.71560223288 5126.627931097016 5610.868275500206 5126.793673671274 5611.058374510108 5126.915455849491 C 5611.166493321989 5126.9433766415705 5611.281740846742 5126.970109314838 5611.404117084365 5126.997436047511 C 5611.525899262583 5127.024168720778 5611.701740846741 5126.950505354442 5611.932235896246 5126.773475651472 C 5612.162136886345 5126.597634067313 5612.419958668524 5126.363574661372 5612.704513123969 5126.072485552461 C 5612.989067579415 5125.781990502956 5613.341344807137 5125.328129116818 5613.761344807137 5124.710901394046 C 5614.1807507477315 5124.095455849491 5614.641740846741 5123.366544958402 5615.143126985356 5122.525950898997 C 5615.9563943120875 5121.116841988105 5616.681146787336 5119.591891493055 5617.3179784705035 5117.952287532659 C 5617.372037876444 5117.816247928699 5617.439760648722 5117.698030106917 5617.521146787335 5117.596445948501 C 5617.602532925949 5117.49426773068 5617.676790351691 5117.422980601967 5617.744513123969 5117.382584562362 C 5617.825899262582 5117.321396443551 5617.825899262582 5117.321396443551 5617.825899262582 5117.321396443551 C 5617.85263193585 5117.307733077214 5617.886493321988 5117.291099413847 5617.927483420999 5117.270901394046 C 5617.968473520008 5117.25129743365 5618.056394312088 5117.230505354441 5618.191839856642 5117.209713275234 C 5618.327285401197 5117.190109314837 5618.462730945751 5117.186544958402 5618.598770549712 5117.200208324739 C 5624.45263193585 5117.158624166323 5624.45263193585 5117.158624166323 5624.45263193585 5117.158624166323 C 5624.980750747731 5117.091495453452 5625.414414114068 5117.1081291168175 5625.753027975454 5117.209119215828 C 5626.09164183684 5117.3107033742435 5626.301938866543 5117.422980601967 5626.383325005157 5117.544762780184 C 5626.505701242781 5117.747931097016 5626.505701242781 5117.747931097016 5626.505701242781 5117.747931097016 C 5626.816988371494 5118.615851889095 5625.801146787336 5120.606544958402 5623.456988371494 5123.723574661372 C 5623.131443817038 5124.157832087115 5622.69065173783 5124.7340697108775 5622.135800252682 5125.451693473254 C 5621.078968569514 5126.80733703761 5620.469463619018 5127.694861790085 5620.307879460603 5128.116049908897 C 5620.076196292286 5128.67030733464 5620.171245797236 5129.2192182257295 5620.591245797236 5129.760406344541Z" stroke-linecap="butt"></path> <defs> </defs> </svg> 