<?xml version="1.0" encoding="UTF-8"?> <!-- Creator: CorelDRAW 2017 --> <svg xmlns="http://www.w3.org/2000/svg" xmlns:xlink="http://www.w3.org/1999/xlink" xml:space="preserve" width="529.167mm" height="52.9166mm" style="shape-rendering:geometricPrecision; text-rendering:geometricPrecision; image-rendering:optimizeQuality; fill-rule:evenodd; clip-rule:evenodd" viewBox="0 0 52916660 5291660"> <defs> <style type="text/css"> <![CDATA[ .str0 {stroke:#2B2A29;stroke-width:20000;stroke-miterlimit:22.9256} .fil1 {fill:none} .fil0 {fill:#FBF8F7} ]]> </style> </defs> <g id="Слой_x0020_1"> <metadata id="CorelCorpID_0Corel-Layer"></metadata> <path class="fil0" d="M-13254820 2686430c7233500,-12820 13420810,2368520 19843080,2368400 6422280,-120 13381410,-2386030 19843740,-2381220 6462330,4810 13317290,2375110 19843760,2371960 6526470,-3150 12666640,-2372240 19843080,-2378590 7176440,-6350 5283080,7197820 5283080,-2981740 -37207170,0 -49966820,0 -87174000,0 69770,1000400 -4716240,3014010 2517260,3001190z"></path> <polyline class="fil1 str0" points="-26330,5572210 6588260,5572210 19817430,5572210 26432000,5572210 39661170,5572210 46275750,5572210 52890330,5572210 "></polyline> <polyline class="fil1 str0" points="52889670,6906890 59504260,6906890 66118850,6906890 72733430,6906890 79348000,6906890 92577170,6906890 99191750,6906890 105806330,6906890 "></polyline> <polyline class="fil1 str0" points="-52942330,7700630 -46327740,7700630 -39713150,7700630 -33098570,7700630 -26484000,7700630 -19869410,7700630 -13254830,7700630 -6640250,7700630 -25670,7700630 "></polyline> </g> </svg> 