<?xml version="1.0" encoding="UTF-8"?> <!-- Creator: CorelDRAW 2017 --> <svg xmlns="http://www.w3.org/2000/svg" xmlns:xlink="http://www.w3.org/1999/xlink" xml:space="preserve" width="1200mm" height="70mm" style="shape-rendering:geometricPrecision; text-rendering:geometricPrecision; image-rendering:optimizeQuality; fill-rule:evenodd; clip-rule:evenodd" viewBox="0 0 120000000 7000000"> <defs> <style type="text/css"> <![CDATA[ .str0 {stroke:#2B2A29;stroke-width:20000;stroke-miterlimit:22.9256} .fil1 {fill:none} .fil0 {fill:#F2E3E5} ]]> </style> </defs> <g id="Слой_x0020_1"> <metadata id="CorelCorpID_0Corel-Layer"></metadata> <path class="fil0" d="M-29098970 850020c16213120,-28740 30081310,5308780 44476140,5308510 14394850,-270 29992990,-5348030 44477610,-5337250 14484620,10780 29849280,5323560 44477660,5316490 14628380,-7060 28390910,-5317120 44476130,-5331350 16085220,-14230 11841460,16133140 11841460,-6683250 -83395880,0 -111995260,0 -195391160,0 156380,2242290 -10570950,6755580 5642160,6726850z"></path> <polyline class="fil1 str0" points="119156810,11969720 133982700,11969720 148808590,11969720 163634460,11969720 178460310,11969720 208112080,11969720 222937950,11969720 237763820,11969720 "></polyline> <polyline class="fil1 str0" points="-118054260,13748810 -103228370,13748810 -88402470,13748810 -73576600,13748810 -58750750,13748810 -43924860,13748810 -29098990,13748810 -14273120,13748810 552750,13748810 "></polyline> </g> </svg> 